<svg width="344" height="38" viewBox="0 0 344 38" fill="none" xmlns="http://www.w3.org/2000/svg">
<path d="M0.939208 11.8C0.939208 25.2441 12.6256 28.2765 26.4887 32.519L10.9133 15.7979L10.2021 11.8L0.939208 11.8Z" fill="black" fill-opacity="0.8"/>
<path d="M131.184 31.8192L172 31.8192L172 17.0001C159.5 17.0001 160.5 6.00012 158.5 2.50012L15.8563 15.0001C19 35.0001 60 31.8191 72 31.8192C84.9515 31.8193 106.579 31.8192 131.184 31.8192Z" fill="#FF0000"/>
<path d="M72 31.8192L72.0001 26.8192L72 31.8192ZM172 36.8192C131.964 36.8192 91.8214 36.8193 72 36.8192L72.0001 26.8192C91.8214 26.8193 131.964 26.8192 172 26.8192L172 36.8192ZM162.841 0.0194238C163.774 1.65144 164.259 3.88577 164.545 5.02377C164.928 6.55085 165.277 7.79023 165.802 8.86182C166.294 9.86495 166.861 10.5459 167.595 11.0164C168.328 11.4856 169.625 12.0001 172 12.0001L172 22.0001C168.125 22.0001 164.86 21.1396 162.202 19.437C159.545 17.7355 157.894 15.4478 156.823 13.2634C155.786 11.1475 155.228 8.98062 154.846 7.46083C154.637 6.62809 154.498 6.05502 154.348 5.54925C154.194 5.02873 154.12 4.91305 154.159 4.98082L162.841 0.0194238ZM72 36.8192C66.4319 36.8191 52.5157 37.6305 39.9119 35.8611C33.5836 34.9726 27.0796 33.3818 21.8177 30.4243C16.4354 27.3991 12.0073 22.713 10.9169 15.7765L20.7956 14.2237C21.2772 17.2872 23.153 19.7035 26.7174 21.7069C30.402 23.7779 35.4876 25.1418 41.3022 25.9582C52.9843 27.5982 65.5681 26.8191 72.0001 26.8192L72 36.8192Z" fill="black"/>
<path d="M343.061 11.8C343.061 25.2441 331.374 28.2765 317.511 32.519L333.087 15.7979L333.798 11.8L343.061 11.8Z" fill="black" fill-opacity="0.8"/>
<path d="M212.816 31.8192L172 31.8192L172 17.0001C184.5 17.0001 183.5 6.00012 185.5 2.50012L328.144 15.0001C325 35.0001 284 31.8191 272 31.8192C259.048 31.8193 237.421 31.8192 212.816 31.8192Z" fill="#FF0000"/>
<path d="M272 31.8192L272 26.8192L272 31.8192ZM172 36.8192C212.036 36.8192 252.179 36.8193 272 36.8192L272 26.8192C252.179 26.8193 212.036 26.8192 172 26.8192L172 36.8192ZM181.159 0.0194238C180.226 1.65144 179.741 3.88577 179.455 5.02377C179.072 6.55085 178.723 7.79023 178.198 8.86182C177.706 9.86495 177.139 10.5459 176.405 11.0164C175.672 11.4856 174.375 12.0001 172 12.0001L172 22.0001C175.875 22.0001 179.14 21.1396 181.798 19.437C184.455 17.7355 186.106 15.4478 187.177 13.2634C188.214 11.1475 188.772 8.98062 189.154 7.46083C189.363 6.62809 189.502 6.05502 189.652 5.54925C189.806 5.02873 189.88 4.91305 189.841 4.98082L181.159 0.0194238ZM272 36.8192C277.568 36.8191 291.484 37.6305 304.088 35.8611C310.416 34.9726 316.92 33.3818 322.182 30.4243C327.565 27.3991 331.993 22.713 333.083 15.7765L323.204 14.2237C322.723 17.2872 320.847 19.7035 317.283 21.7069C313.598 23.7779 308.512 25.1418 302.698 25.9582C291.016 27.5982 278.432 26.8191 272 26.8192L272 36.8192Z" fill="black"/>
</svg>
