<svg width="316" height="253" viewBox="0 0 316 253" fill="none" xmlns="http://www.w3.org/2000/svg">
<path fill-rule="evenodd" clip-rule="evenodd" d="M171.236 0.793637C165.549 0.899025 160.101 0.999993 155 0.999993V11C160.471 11 166.17 10.8954 172.02 10.7881C190.462 10.4496 210.399 10.0838 229.376 12.8816C254.2 16.5411 276.11 25.4787 289.636 46.0818C293.327 51.7034 296.449 62.1069 299.068 73.9429C300.866 82.0698 302.326 90.3492 303.598 97.5626C303.783 98.6138 303.965 99.6423 304.142 100.644C292.62 101.431 269.636 103.855 244.688 106.959C213.975 110.781 179.638 115.717 158.822 120.138C156.709 120.587 155.123 122.343 154.89 124.491C154.157 131.258 153.995 137.719 154.369 143.889C153.839 171.528 153.852 204.713 153.859 224.883C153.86 227.085 153.861 229.132 153.861 231H163.861C163.861 229.132 163.86 227.089 163.859 224.893C163.855 213.09 163.849 196.89 163.95 179.976C169.142 190.208 176.274 199.332 185.036 207.471C207.01 227.88 239.022 241.911 275.634 252.31L278.366 242.69C242.301 232.446 212.094 218.953 191.842 200.144C175.805 185.249 165.881 166.914 164.375 143.678C164.474 138.595 164.591 133.707 164.73 129.131C185.346 125.009 217.076 120.472 245.923 116.883C276.76 113.046 303.657 110.373 310.082 110.373C311.57 110.373 312.98 109.71 313.93 108.565C314.88 107.42 315.271 105.912 314.996 104.45C314.536 101.999 314.037 99.1727 313.495 96.0997C312.209 88.8075 310.678 80.1268 308.832 71.7827C306.244 60.0853 302.826 47.9503 297.996 40.5937C293.508 33.7576 288.252 28.0788 282.426 23.3635C291.982 24.5249 302.977 25.5 313 25.5V15.5C301.092 15.5 287.497 14.0338 276.782 12.5426C271.445 11.8 266.865 11.0573 263.623 10.5009C262.002 10.2228 260.717 9.99149 259.841 9.8304C259.403 9.74987 259.067 9.68691 258.843 9.64444C258.731 9.6232 258.647 9.6071 258.591 9.59648L258.513 9.58147C258.513 9.58148 258.513 9.58143 258.455 9.8794C249.636 6.54706 240.293 4.38295 230.835 2.98853C210.954 0.05759 189.821 0.449222 171.236 0.793637Z" fill="black"/>
<path d="M298.992 52.0913L313.32 102.279V22.5913L279.492 20.5913L298.992 52.0913Z" fill="black" fill-opacity="0.5"/>
<path d="M181.5 197.276L159.201 154.276V233.023H234L181.5 197.276Z" fill="black" fill-opacity="0.5"/>
<path fill-rule="evenodd" clip-rule="evenodd" d="M144.764 0.793637C150.451 0.899025 155.899 0.999993 161 0.999993V11C155.529 11 149.83 10.8954 143.98 10.7881C125.538 10.4496 105.601 10.0838 86.624 12.8816C61.8005 16.5411 39.8899 25.4787 26.3635 46.0818C22.6728 51.7034 19.5506 62.1069 16.932 73.9429C15.1339 82.0698 13.6741 90.3492 12.4022 97.5626C12.2168 98.6138 12.0354 99.6423 11.8576 100.644C23.3803 101.431 46.3637 103.855 71.312 106.959C102.025 110.781 136.362 115.717 157.178 120.138C159.291 120.587 160.877 122.343 161.11 124.491C161.843 131.258 162.005 137.719 161.631 143.889C162.161 171.528 162.148 204.713 162.141 224.883C162.14 227.085 162.139 229.132 162.139 231H152.139C152.139 229.132 152.14 227.089 152.141 224.893C152.145 213.09 152.151 196.89 152.05 179.976C146.858 190.208 139.726 199.332 130.964 207.471C108.99 227.88 76.978 241.911 40.3661 252.31L37.6338 242.69C73.699 232.446 103.906 218.953 124.158 200.144C140.195 185.249 150.119 166.914 151.625 143.678C151.526 138.595 151.409 133.707 151.27 129.131C130.654 125.009 98.924 120.472 70.077 116.883C39.2404 113.046 12.3426 110.373 5.91791 110.373C4.43021 110.373 3.01981 109.71 2.06991 108.565C1.11991 107.42 0.729207 105.912 1.00381 104.45C1.46411 101.999 1.96261 99.1727 2.50461 96.0997C3.79091 88.8075 5.32201 80.1268 7.16811 71.7827C9.75611 60.0853 13.1744 47.9503 18.0041 40.5937C22.4921 33.7576 27.7483 28.0788 33.5743 23.3635C24.0184 24.5249 13.0234 25.5 3.00001 25.5V15.5C14.9079 15.5 28.5026 14.0338 39.2184 12.5426C44.555 11.8 49.135 11.0573 52.3773 10.5009C53.9979 10.2228 55.2826 9.99149 56.1588 9.8304C56.5968 9.74987 56.9326 9.68691 57.157 9.64444C57.2692 9.6232 57.3535 9.6071 57.4088 9.59648L57.4868 9.58147C57.4867 9.58148 57.487 9.58143 57.5448 9.8794C66.364 6.54706 75.707 4.38295 85.165 2.98853C105.046 0.05759 126.179 0.449222 144.764 0.793637Z" fill="black"/>
<path d="M17.0076 52.0913L2.68005 102.279V22.5913L36.5076 20.5913L17.0076 52.0913Z" fill="black" fill-opacity="0.5"/>
<path d="M134.5 197.276L156.799 154.276V233.023H82L134.5 197.276Z" fill="black" fill-opacity="0.5"/>
</svg>
