<svg width="357" height="235" viewBox="0 0 357 235" fill="none" xmlns="http://www.w3.org/2000/svg">
<rect x="161" y="52" width="34" height="72" fill="#FF0000"/>
<path d="M8.47267 112.306C8.58888 91.9587 4.32659 34.6074 19.3561 18.9479C33.6823 4.02119 171.249 4.93268 184.094 5.05069C185.206 -1.06547 185.738 -1.99004 185.054 5.06036C185.054 5.06036 184.724 5.05648 184.094 5.05069C180.973 22.2097 173.284 80.2318 175.058 117.653L99.9694 113.261L8.47267 112.306Z" fill="#FF0000"/>
<path d="M181.056 5.06036C138.992 5.06036 34.3857 3.28831 19.3561 18.9479C4.32659 34.6074 8.58888 91.9586 8.47267 112.306L95.071 117.653" stroke="black" stroke-width="10" stroke-linecap="square" stroke-linejoin="round"/>
<path d="M8 9V34.5L33 9H8Z" fill="black" fill-opacity="0.8"/>
<path d="M11.5 108.5L153 123.5C113.5 114.5 31.2896 111.626 11.5 79.9999L11.5 108.5Z" fill="black" fill-opacity="0.4"/>
<path d="M177.584 122.694C177.468 143.041 181.73 200.393 166.7 216.052C152.374 230.979 14.8078 230.067 1.96298 229.949C0.850662 236.065 0.318664 236.99 1.00234 229.94C1.00234 229.94 1.33234 229.944 1.96298 229.949C5.08365 212.79 12.7721 154.768 10.999 117.347L86.0872 121.738L177.584 122.694Z" fill="#FF0000"/>
<path d="M5.00099 229.94C47.0649 229.94 151.671 231.712 166.7 216.052C181.73 200.393 177.468 143.041 177.584 122.694L90.9856 117.347" stroke="black" stroke-width="10" stroke-linecap="square" stroke-linejoin="round"/>
<path d="M178.057 226L178.057 200.5L153.057 226L178.057 226Z" fill="black" fill-opacity="0.8"/>
<path d="M174.557 126.5L33.0566 111.5C72.5566 120.5 154.767 123.374 174.557 155L174.557 126.5Z" fill="black" fill-opacity="0.4"/>
<path d="M347.64 112.306C347.524 91.9587 351.787 34.6074 336.757 18.9479C322.431 4.02119 184.864 4.93268 172.02 5.05069C170.907 -1.06547 170.375 -1.99004 171.059 5.06036C171.059 5.06036 171.389 5.05648 172.02 5.05069C175.14 22.2097 182.829 80.2318 181.056 117.653L256.144 113.261L347.64 112.306Z" fill="#FF0000"/>
<path d="M175.058 5.06036C217.122 5.06036 321.727 3.28831 336.757 18.9479C351.787 34.6074 347.524 91.9586 347.64 112.306L261.042 117.653" stroke="black" stroke-width="10" stroke-linecap="square" stroke-linejoin="round"/>
<path d="M348.113 9V34.5L323.113 9H348.113Z" fill="black" fill-opacity="0.8"/>
<path d="M344.613 108.5L203.113 123.5C242.613 114.5 324.824 111.626 344.613 79.9999L344.613 108.5Z" fill="black" fill-opacity="0.4"/>
<path d="M178.529 122.694C178.645 143.041 174.383 200.393 189.413 216.052C203.739 230.979 341.305 230.067 354.15 229.949C355.263 236.065 355.795 236.99 355.111 229.94C355.111 229.94 354.781 229.944 354.15 229.949C351.03 212.79 343.341 154.768 345.114 117.347L270.026 121.738L178.529 122.694Z" fill="#FF0000"/>
<path d="M351.112 229.94C309.048 229.94 204.442 231.712 189.413 216.052C174.383 200.393 178.645 143.041 178.529 122.694L265.128 117.347" stroke="black" stroke-width="10" stroke-linecap="square" stroke-linejoin="round"/>
<path d="M178.057 226L178.057 200.5L203.057 226L178.057 226Z" fill="black" fill-opacity="0.8"/>
<path d="M181.557 126.5L323.057 111.5C283.557 120.5 201.346 123.374 181.557 155L181.557 126.5Z" fill="black" fill-opacity="0.4"/>
</svg>
