<svg width="350" height="243" viewBox="0 0 350 243" fill="none" xmlns="http://www.w3.org/2000/svg">
<path d="M20.8593 241C10.8184 215 6.56305 154.379 5.4644 112.306C5.57858 91.9586 1.39087 34.6074 16.1574 18.9479C30.9239 3.28831 133.699 5.06036 175.027 5.06036V122C140.148 121 154.34 186.5 162.053 226.343L20.8593 241Z" fill="#FF0000"/>
<path d="M5.4644 112.306L0.464475 112.278L0.46403 112.357L0.466101 112.436L5.4644 112.306ZM16.1574 18.9479L19.7951 22.3781L16.1574 18.9479ZM0.466101 112.436C1.01773 133.561 2.36202 159.369 4.83523 183.196C7.29104 206.856 10.9093 229.114 16.195 242.801L25.5235 239.199C20.7684 226.886 17.2385 205.833 14.7818 182.164C12.3424 158.663 11.0097 133.124 10.4627 112.175L0.466101 112.436ZM12.5197 15.5176C7.8511 20.4685 5.11461 28.1256 3.38322 36.2362C1.61409 44.5237 0.73286 54.1099 0.32092 63.6534C-0.493654 82.5247 0.518641 102.626 0.464475 112.278L10.4643 112.334C10.5243 101.639 9.49987 82.8906 10.3116 64.0846C10.7128 54.7894 11.5605 45.8299 13.1629 38.3239C14.8029 30.6411 17.0804 25.257 19.7951 22.3781L12.5197 15.5176ZM175.027 0.0603552C154.454 0.0603552 118.257 -0.384272 85.4006 1.13713C68.9788 1.89754 53.2295 3.15494 40.5859 5.23808C34.2702 6.27864 28.5912 7.54697 23.9319 9.11685C19.4206 10.6369 15.232 12.6412 12.5197 15.5176L19.7951 22.3781C20.7744 21.3396 23.0278 19.9738 27.1248 18.5934C31.0739 17.2629 36.1698 16.1005 42.2116 15.1051C54.2829 13.1162 69.5792 11.8805 85.8631 11.1264C118.418 9.61896 154.272 10.0604 175.027 10.0604V0.0603552ZM166.962 225.393C163.065 205.262 157.716 179.475 157.568 158.82C157.494 148.435 158.759 140.104 161.634 134.591C163.026 131.922 164.724 130.05 166.725 128.842C168.713 127.641 171.327 126.896 174.884 126.998L175.171 117.002C170.008 116.854 165.435 117.938 161.554 120.283C157.685 122.62 154.83 126.013 152.768 129.967C148.735 137.698 147.491 148.045 147.568 158.891C147.725 180.697 153.328 207.581 157.144 227.293L166.962 225.393Z" fill="black"/>
<path d="M329.141 241C339.182 215 343.437 154.379 344.536 112.306C344.421 91.9586 348.609 34.6074 333.843 18.9479C319.076 3.28831 216.301 5.06036 174.973 5.06036V122C209.852 121 195.66 186.5 187.947 226.343L329.141 241Z" fill="#FF0000"/>
<path d="M344.536 112.306L349.536 112.278L349.536 112.357L349.534 112.436L344.536 112.306ZM333.843 18.9479L330.205 22.3781L333.843 18.9479ZM349.534 112.436C348.982 133.561 347.638 159.369 345.165 183.196C342.709 206.856 339.091 229.114 333.805 242.801L324.476 239.199C329.232 226.886 332.761 205.833 335.218 182.164C337.658 158.663 338.99 133.124 339.537 112.175L349.534 112.436ZM337.48 15.5176C342.149 20.4685 344.885 28.1256 346.617 36.2362C348.386 44.5237 349.267 54.1099 349.679 63.6534C350.494 82.5247 349.481 102.626 349.536 112.278L339.536 112.334C339.476 101.639 340.5 82.8906 339.688 64.0846C339.287 54.7894 338.439 45.8299 336.837 38.3239C335.197 30.6411 332.92 25.257 330.205 22.3781L337.48 15.5176ZM174.973 0.0603552C195.546 0.0603552 231.743 -0.384272 264.599 1.13713C281.021 1.89754 296.771 3.15494 309.414 5.23808C315.73 6.27864 321.409 7.54697 326.068 9.11685C330.579 10.6369 334.768 12.6412 337.48 15.5176L330.205 22.3781C329.226 21.3396 326.972 19.9738 322.875 18.5934C318.926 17.2629 313.83 16.1005 307.788 15.1051C295.717 13.1162 280.421 11.8805 264.137 11.1264C231.582 9.61896 195.728 10.0604 174.973 10.0604V0.0603552ZM183.038 225.393C186.935 205.262 192.284 179.475 192.432 158.82C192.506 148.435 191.241 140.104 188.366 134.591C186.974 131.922 185.276 130.05 183.275 128.842C181.287 127.641 178.673 126.896 175.116 126.998L174.829 117.002C179.992 116.854 184.565 117.938 188.446 120.283C192.315 122.62 195.17 126.013 197.232 129.967C201.265 137.698 202.509 148.045 202.432 158.891C202.275 180.697 196.672 207.581 192.856 227.293L183.038 225.393Z" fill="black"/>
</svg>
