<svg width="348" height="247" viewBox="0 0 348 247" fill="none" xmlns="http://www.w3.org/2000/svg">
<path d="M20.1889 244.691C-6.80295 129.744 16.9495 36.5261 16.1416 11C23.5393 41.9244 90.0039 130.747 90.0039 130.747L126.429 176.134L162.854 238.422L20.1889 244.691Z" fill="#FF0000"/>
<path d="M18.1654 245.657C-8.82645 130.71 16.9496 36.5261 16.1417 11C23.5394 41.9244 63.4944 93.8886 89.0236 123.504" stroke="black" stroke-width="10"/>
<path d="M4 239.87L17.6595 239.87L4 180.963L4 239.87Z" fill="black" fill-opacity="0.8"/>
<path d="M4 14.8628L17.6595 14.8628L4 73.7703L4 14.8628Z" fill="black" fill-opacity="0.8"/>
<path d="M19.1772 25.0026L10.5768 61.6991L87.9803 124.469L19.1772 25.0026Z" fill="black" fill-opacity="0.2"/>
<path d="M157.827 2.30873C184.819 117.256 161.066 210.474 161.874 236C154.476 205.076 88.0118 116.253 88.0118 116.253L51.5866 70.8657L15.1614 8.5782L157.827 2.30873Z" fill="#FF0000"/>
<path d="M159.85 1.34305C186.842 116.29 161.066 210.474 161.874 236C154.476 205.076 114.521 153.111 88.9922 123.496" stroke="black" stroke-width="10"/>
<path d="M174.016 7.12967L160.356 7.12967L174.016 66.0372L174.016 7.12967Z" fill="black" fill-opacity="0.8"/>
<path d="M174.016 232.137L160.356 232.137L174.016 173.23L174.016 232.137Z" fill="black" fill-opacity="0.8"/>
<path d="M158.839 221.997L167.439 185.301L90.0354 122.531L158.839 221.997Z" fill="black" fill-opacity="0.2"/>
<path d="M190.173 2.30873C163.181 117.256 186.934 210.474 186.126 236C193.524 205.076 259.988 116.253 259.988 116.253L296.413 70.8657L332.839 8.5782L190.173 2.30873Z" fill="#FF0000"/>
<path d="M188.15 1.34305C161.158 116.29 186.934 210.474 186.126 236C193.524 205.076 233.479 153.111 259.008 123.496" stroke="black" stroke-width="10"/>
<path d="M173.984 7.12967L187.644 7.12967L173.984 66.0372L173.984 7.12967Z" fill="black" fill-opacity="0.8"/>
<path d="M173.984 232.137L187.644 232.137L173.984 173.23L173.984 232.137Z" fill="black" fill-opacity="0.8"/>
<path d="M189.161 221.997L180.561 185.301L257.965 122.531L189.161 221.997Z" fill="black" fill-opacity="0.2"/>
<path d="M327.811 244.691C354.803 129.744 331.05 36.5261 331.858 11C324.461 41.9244 257.996 130.747 257.996 130.747L221.571 176.134L185.146 238.422L327.811 244.691Z" fill="#FF0000"/>
<path d="M329.835 245.657C356.826 130.71 331.05 36.5261 331.858 11C324.461 41.9244 284.506 93.8886 258.976 123.504" stroke="black" stroke-width="10"/>
<path d="M344 239.87L330.341 239.87L344 180.963L344 239.87Z" fill="black" fill-opacity="0.8"/>
<path d="M344 14.8628L330.341 14.8628L344 73.7703L344 14.8628Z" fill="black" fill-opacity="0.8"/>
<path d="M328.823 25.0026L337.423 61.6991L260.02 124.469L328.823 25.0026Z" fill="black" fill-opacity="0.2"/>
</svg>
