<svg width="320" height="247" viewBox="0 0 320 247" fill="none">
<path fill-rule="evenodd" clip-rule="evenodd" d="M148.72 155.632C154.832 148.009 158.544 136.243 160.906 123.214C163.323 109.886 164.456 94.4418 164.902 78.9985C165.518 57.7009 164.827 35.8427 164.303 19.2964C164.072 11.9745 163.873 5.69264 163.835 0.959869L153.835 1.04011C153.876 6.14569 154.084 12.6741 154.322 20.1739C154.844 36.6053 155.514 57.6995 154.907 78.7095C154.467 93.9269 153.355 108.808 151.067 121.43C149.426 130.477 147.243 137.983 144.508 143.569C140.877 134.034 136.582 124.798 131.51 116.563C117.768 94.2546 96.5082 68.7454 78.8346 48.9458C69.9701 39.0149 61.9554 30.4627 56.1555 24.3918C53.255 21.3557 50.9068 18.9385 49.2814 17.278C48.4686 16.4476 47.8364 15.8064 47.4061 15.3713C47.1909 15.1538 47.0262 14.9879 46.9146 14.8756L46.743 14.7033C46.7423 14.7026 46.7418 14.7021 43.2041 18.2354L46.7418 14.7021L45.1396 13.0978L42.8771 13.2461C33.0349 13.8912 6.74944 14.2354 3.49996 14.2354V24.2354C5.52041 24.2354 16.4309 24.1047 26.8798 23.8472C11.3403 42.9929 4.67989 66.7725 2.10787 88.7449C-0.509572 111.105 1.05724 132.07 2.14923 145.207C4.38501 172.104 12.894 207.924 36.7434 246.623L45.2566 241.377C22.3247 204.166 14.236 169.896 12.1149 144.378C11.0285 131.308 9.54754 111.201 12.0401 89.9076C14.536 68.5851 20.9667 46.5475 35.3296 29.3158C36.5507 27.8509 37.7581 27.1951 39.5547 26.3682C39.7116 26.296 39.8772 26.2211 40.0506 26.1427C40.8104 25.7991 41.719 25.3882 42.6921 24.8427C44.2549 26.4433 46.3723 28.6278 48.9249 31.2996C54.6659 37.3089 62.6013 45.7766 71.3743 55.605C88.9758 75.3237 109.74 100.29 122.996 121.808C135.327 141.827 143 168.833 147.579 191.182C149.855 202.292 151.342 212.125 152.26 219.175C152.718 222.698 153.034 225.522 153.234 227.458C153.334 228.425 153.405 229.171 153.451 229.67C153.474 229.92 153.491 230.108 153.502 230.232L153.513 230.368L153.516 230.4L153.517 230.406C153.517 230.406 153.517 230.406 158.5 230C163.483 229.594 163.483 229.593 163.483 229.591L163.482 229.575L163.478 229.531L163.464 229.368C163.452 229.228 163.434 229.022 163.409 228.754C163.36 228.219 163.285 227.436 163.181 226.428C162.972 224.414 162.647 221.503 162.176 217.885C161.235 210.651 159.711 200.573 157.375 189.175C155.248 178.793 152.428 167.209 148.72 155.632Z" fill="black"/>
<path d="M40.5 244.5L5 245.5V154L19 200.5L40.5 244.5Z" fill="black" fill-opacity="0.5"/>
<path d="M154.802 201.707C158.674 212.259 160.063 210.865 160.063 210.865V117.324L147.53 151C147.53 151 148.314 184.025 154.802 201.707Z" fill="black" fill-opacity="0.5"/>
<path d="M19.0076 50.0913L4.68018 100.279V20.5913L38.5076 18.5913L19.0076 50.0913Z" fill="black" fill-opacity="0.5"/>
<path fill-rule="evenodd" clip-rule="evenodd" d="M171.28 155.632C165.169 148.009 161.456 136.243 159.094 123.214C156.677 109.886 155.544 94.4418 155.098 78.9985C154.482 57.7009 155.173 35.8427 155.697 19.2964C155.928 11.9745 156.127 5.69264 156.165 0.959869L166.165 1.04011C166.124 6.14569 165.916 12.6741 165.678 20.1739C165.156 36.6053 164.486 57.6995 165.093 78.7095C165.533 93.9269 166.645 108.808 168.933 121.43C170.574 130.477 172.757 137.983 175.492 143.569C179.123 134.034 183.418 124.798 188.49 116.563C202.232 94.2546 223.492 68.7454 241.165 48.9458C250.03 39.0149 258.045 30.4627 263.844 24.3918C266.745 21.3557 269.093 18.9385 270.719 17.278C271.531 16.4476 272.164 15.8064 272.594 15.3713C272.809 15.1538 272.974 14.9879 273.085 14.8756L273.257 14.7033C273.258 14.7026 273.258 14.7021 276.796 18.2354L273.258 14.7021L274.86 13.0978L277.123 13.2461C286.965 13.8912 313.251 14.2354 316.5 14.2354V24.2354C314.48 24.2354 303.569 24.1047 293.12 23.8472C308.66 42.9929 315.32 66.7725 317.892 88.7449C320.51 111.105 318.943 132.07 317.851 145.207C315.615 172.104 307.106 207.924 283.257 246.623L274.743 241.377C297.675 204.166 305.764 169.896 307.885 144.378C308.972 131.308 310.452 111.201 307.96 89.9076C305.464 68.5851 299.033 46.5475 284.67 29.3158C283.449 27.8509 282.242 27.1951 280.445 26.3682C280.288 26.296 280.123 26.2211 279.949 26.1427C279.19 25.7991 278.281 25.3882 277.308 24.8427C275.745 26.4433 273.628 28.6278 271.075 31.2996C265.334 37.3089 257.399 45.7766 248.626 55.605C231.024 75.3237 210.26 100.29 197.004 121.808C184.673 141.827 177 168.833 172.421 191.182C170.145 202.292 168.658 212.125 167.74 219.175C167.282 222.698 166.966 225.522 166.766 227.458C166.666 228.425 166.595 229.171 166.549 229.67C166.526 229.92 166.509 230.108 166.498 230.232L166.487 230.368L166.484 230.4L166.483 230.406C166.483 230.406 166.483 230.406 161.5 230C156.517 229.594 156.517 229.593 156.517 229.591L156.518 229.575L156.522 229.531L156.536 229.368C156.548 229.228 156.566 229.022 156.591 228.754C156.64 228.219 156.715 227.436 156.819 226.428C157.028 224.414 157.353 221.503 157.824 217.885C158.765 210.651 160.289 200.573 162.625 189.175C164.752 178.793 167.572 167.209 171.28 155.632Z" fill="black"/>
<path d="M279.5 244.5L315 245.5V154L301 200.5L279.5 244.5Z" fill="black" fill-opacity="0.5"/>
<path d="M165.198 201.707C161.326 212.259 159.937 210.865 159.937 210.865V117.324L172.47 151C172.47 151 171.686 184.025 165.198 201.707Z" fill="black" fill-opacity="0.5"/>
<path d="M300.992 50.0913L315.32 100.279V20.5913L281.492 18.5913L300.992 50.0913Z" fill="black" fill-opacity="0.5"/>
</svg>
