<svg width="329" height="249" viewBox="0 0 329 249" fill="none" xmlns="http://www.w3.org/2000/svg">
<path fill-rule="evenodd" clip-rule="evenodd" d="M11.7905 13.659L21.7082 13.6401C22.215 20.7033 25.1318 29.4234 29.9448 39.2719C34.7218 49.0468 41.1866 59.5755 48.4339 70.1729C62.4185 90.6219 79.0522 110.95 91.4959 126.158C91.9549 126.719 92.4082 127.273 92.8555 127.819L85.1779 134.173C84.7096 133.6 84.2341 133.019 83.7519 132.43C71.3492 117.273 54.4762 96.6532 40.2425 75.8399C32.0333 63.8359 24.2154 51.3693 18.3887 37.9933C12.1831 77.3277 1.67299 150.779 24.0792 245.831L14.4052 248.137C-9.2667 147.716 3.18177 69.9022 9.21547 32.1864C10.5061 24.1189 11.5032 17.8861 11.7905 13.659Z" fill="black"/>
<path d="M3.61389 18.6997V94.697L15.0473 18.6997H3.61389Z" fill="black" fill-opacity="0.6"/>
<path d="M11.4681 52.9986L83.5486 131.996L15.9 34.9993L11.4681 52.9986Z" fill="black" fill-opacity="0.2"/>
<path d="M3.81274 238.992L3.81274 164.995L14.7491 238.992L3.81274 238.992Z" fill="black" fill-opacity="0.6"/>
<path fill-rule="evenodd" clip-rule="evenodd" d="M156.513 235.341L146.595 235.36C146.088 228.297 143.171 219.577 138.358 209.728C133.581 199.953 127.116 189.425 119.869 178.827C105.885 158.378 89.2509 138.05 76.8072 122.842C76.3482 122.281 75.8949 121.727 75.4476 121.181L83.1252 114.827C83.5935 115.4 84.069 115.981 84.5513 116.57C96.9539 131.727 113.827 152.347 128.061 173.16C136.27 185.164 144.088 197.631 149.914 211.007C156.12 171.672 166.63 98.2214 144.224 3.16943L153.898 0.862565C177.57 101.284 165.121 179.098 159.088 216.814C157.797 224.881 156.8 231.114 156.513 235.341Z" fill="black"/>
<path d="M164.689 230.3L164.689 154.303L153.256 230.3L164.689 230.3Z" fill="black" fill-opacity="0.6"/>
<path d="M156.835 196.001L84.7545 117.004L152.403 214.001L156.835 196.001Z" fill="black" fill-opacity="0.2"/>
<path d="M164.49 10.0081L164.49 84.0054L153.554 10.0081L164.49 10.0081Z" fill="black" fill-opacity="0.6"/>
<path fill-rule="evenodd" clip-rule="evenodd" d="M317.21 13.659L307.292 13.6401C306.785 20.7033 303.868 29.4234 299.055 39.2719C294.278 49.0468 287.814 59.5755 280.566 70.1729C266.582 90.6219 249.948 110.95 237.504 126.158C237.045 126.719 236.592 127.273 236.145 127.819L243.822 134.173C244.291 133.6 244.766 133.019 245.248 132.43C257.651 117.273 274.524 96.6532 288.758 75.8399C296.967 63.8359 304.785 51.3693 310.611 37.9933C316.817 77.3277 327.327 150.779 304.921 245.831L314.595 248.137C338.267 147.716 325.818 69.9022 319.785 32.1864C318.494 24.1189 317.497 17.8861 317.21 13.659Z" fill="black"/>
<path d="M325.386 18.6997V94.697L313.953 18.6997H325.386Z" fill="black" fill-opacity="0.6"/>
<path d="M317.532 52.9986L245.452 131.996L313.1 34.9993L317.532 52.9986Z" fill="black" fill-opacity="0.2"/>
<path d="M325.187 238.992L325.187 164.995L314.251 238.992L325.187 238.992Z" fill="black" fill-opacity="0.6"/>
<path fill-rule="evenodd" clip-rule="evenodd" d="M172.487 235.341L182.405 235.36C182.912 228.297 185.829 219.577 190.642 209.728C195.419 199.953 201.884 189.425 209.131 178.827C223.115 158.378 239.749 138.05 252.193 122.842C252.652 122.281 253.105 121.727 253.552 121.181L245.875 114.827C245.406 115.4 244.931 115.981 244.449 116.57C232.046 131.727 215.173 152.347 200.939 173.16C192.73 185.164 184.912 197.631 179.086 211.007C172.88 171.672 162.37 98.2214 184.776 3.16943L175.102 0.862565C151.43 101.284 163.879 179.098 169.912 216.814C171.203 224.881 172.2 231.114 172.487 235.341Z" fill="black"/>
<path d="M164.311 230.3L164.311 154.303L175.744 230.3L164.311 230.3Z" fill="black" fill-opacity="0.6"/>
<path d="M172.165 196.001L244.245 117.004L176.597 214.001L172.165 196.001Z" fill="black" fill-opacity="0.2"/>
<path d="M164.51 10.0081L164.51 84.0054L175.446 10.0081L164.51 10.0081Z" fill="black" fill-opacity="0.6"/>
</svg>
