<svg width="70%" height="700px" viewBox="0 0 {{6*3 + 322 * maxcols}} {{3*9.1 + 221 * lines|length}}" fill="none" xmlns="http://www.w3.org/2000/svg">
<rect width="{{6 + 322 * maxcols}}" height="{{9.1 + 221 * lines|length}}" fill="{{colour}}" />
{% for i in range(lines|length) %}
{% for j in range(lines[i]|length) %}
{%if lines[i][j] == 'K' %}
<svg x="{{ j * 322}}" y="{{9.1 + i * 221}}" width="342" height="231" viewBox="0 0 342 231" fill="none" >
<path fill-rule="evenodd" clip-rule="evenodd" d="M168.205 0.374993C172.508 0.388425 176.469 0.400791 180 0.400791V10.4008C176.423 10.4008 172.426 10.3884 168.096 10.375C146.858 10.3091 117.625 10.2185 90.7097 11.4447C74.5033 12.1829 59.2965 13.393 47.2773 15.3408C41.2621 16.3157 36.1792 17.4546 32.2266 18.7597C28.1307 20.1122 25.8376 21.4579 24.8168 22.4989C22.0698 25.3003 19.7645 30.535 18.1005 38.031C16.474 45.3581 15.612 54.112 15.2038 63.2052C14.6504 75.5346 14.9355 87.8212 15.1659 97.7474C15.2315 100.572 15.2926 103.206 15.3287 105.595C23.7521 106.027 40.3056 107.131 56.0166 108.215C66.1556 108.914 76.0548 109.614 83.4187 110.139C87.1008 110.401 90.1494 110.619 92.2776 110.772C93.3417 110.849 94.1757 110.909 94.7438 110.95L95.6108 111.013L95.6135 111.013C95.6141 111.013 95.6144 111.013 95.2533 116C94.8922 120.987 94.8919 120.987 94.8914 120.987L94.024 120.924C93.4567 120.883 92.6236 120.823 91.5604 120.747C89.4341 120.594 86.3877 120.375 82.7081 120.113C75.3486 119.589 65.4574 118.89 55.3283 118.191C34.9064 116.782 13.9546 115.406 10.3597 115.406C9.02853 115.406 7.75234 114.875 6.81384 113.931C5.87533 112.987 5.35199 111.708 5.35976 110.377C5.37719 107.39 5.28549 103.367 5.17857 98.6768C4.94831 88.5752 4.64746 75.3762 5.21388 62.7568C5.63365 53.4048 6.53195 44.0004 8.33812 35.864C10.1068 27.8964 12.9065 20.3623 17.6767 15.4975C20.4146 12.7054 24.5865 10.7514 29.0912 9.26398C33.7392 7.72925 39.3922 6.48825 45.6776 5.46963C58.2595 3.43056 73.9117 2.19952 90.2546 1.45501C117.441 0.216517 146.979 0.308729 168.205 0.374993Z" fill="black"/>
<path d="M9 9V34L29 9H9Z" fill="black" fill-opacity="0.6"/>
<path d="M14 107.5L93 113C53.5 107.5 20 101.723 14 86L14 107.5Z" fill="black" fill-opacity="0.4"/>
<path fill-rule="evenodd" clip-rule="evenodd" d="M11.7945 230.625C7.49188 230.612 3.53076 230.599 -1.52536e-05 230.599L-1.43794e-05 220.599C3.57747 220.599 7.57442 220.612 11.9035 220.625C33.1423 220.691 62.3753 220.781 89.2903 219.555C105.497 218.817 120.704 217.607 132.723 215.659C138.738 214.684 143.821 213.545 147.773 212.24C151.869 210.888 154.162 209.542 155.183 208.501C157.93 205.7 160.236 200.465 161.9 192.969C163.526 185.642 164.388 176.888 164.796 167.795C165.35 155.465 165.064 143.179 164.834 133.253C164.769 130.428 164.707 127.794 164.671 125.405C156.248 124.973 139.694 123.869 123.983 122.785C113.844 122.086 103.945 121.386 96.5813 120.861C92.8992 120.599 89.8506 120.381 87.7224 120.228C86.6583 120.151 85.8243 120.091 85.2562 120.05L84.3892 119.987L84.3865 119.987C84.3859 119.987 84.3856 119.987 84.7467 115C85.1078 110.013 85.1081 110.013 85.1086 110.013L85.976 110.076C86.5433 110.117 87.3764 110.177 88.4396 110.253C90.5659 110.406 93.6123 110.625 97.2919 110.887C104.651 111.411 114.543 112.11 124.672 112.809C145.094 114.218 166.045 115.594 169.64 115.594C170.971 115.594 172.248 116.125 173.186 117.069C174.125 118.013 174.648 119.292 174.64 120.623C174.623 123.61 174.715 127.633 174.821 132.323C175.052 142.425 175.353 155.624 174.786 168.243C174.366 177.595 173.468 187 171.662 195.136C169.893 203.104 167.094 210.638 162.323 215.502C159.585 218.295 155.413 220.249 150.909 221.736C146.261 223.271 140.608 224.512 134.322 225.53C121.741 227.569 106.088 228.8 89.7454 229.545C62.5589 230.783 33.0208 230.691 11.7945 230.625Z" fill="black"/>
<path d="M171 222L171 197L151 222L171 222Z" fill="black" fill-opacity="0.6"/>
<path d="M166 123.5L87 118C126.5 123.5 160 129.277 166 145L166 123.5Z" fill="black" fill-opacity="0.4"/>
<path fill-rule="evenodd" clip-rule="evenodd" d="M173.795 0.374993C169.492 0.388425 165.531 0.400791 162 0.400791V10.4008C165.577 10.4008 169.574 10.3884 173.904 10.375C195.142 10.3091 224.375 10.2185 251.29 11.4447C267.497 12.1829 282.704 13.393 294.723 15.3408C300.738 16.3157 305.821 17.4546 309.773 18.7597C313.869 20.1122 316.162 21.4579 317.183 22.4989C319.93 25.3003 322.236 30.535 323.9 38.031C325.526 45.3581 326.388 54.112 326.796 63.2052C327.35 75.5346 327.064 87.8212 326.834 97.7474C326.769 100.572 326.707 103.206 326.671 105.595C318.248 106.027 301.694 107.131 285.983 108.215C275.844 108.914 265.945 109.614 258.581 110.139C254.899 110.401 251.851 110.619 249.722 110.772C248.658 110.849 247.824 110.909 247.256 110.95L246.389 111.013L246.386 111.013C246.386 111.013 246.386 111.013 246.747 116C247.108 120.987 247.108 120.987 247.109 120.987L247.976 120.924C248.543 120.883 249.376 120.823 250.44 120.747C252.566 120.594 255.612 120.375 259.292 120.113C266.651 119.589 276.543 118.89 286.672 118.191C307.094 116.782 328.045 115.406 331.64 115.406C332.971 115.406 334.248 114.875 335.186 113.931C336.125 112.987 336.648 111.708 336.64 110.377C336.623 107.39 336.715 103.367 336.821 98.6768C337.052 88.5752 337.353 75.3762 336.786 62.7568C336.366 53.4048 335.468 44.0004 333.662 35.864C331.893 27.8964 329.094 20.3623 324.323 15.4975C321.585 12.7054 317.413 10.7514 312.909 9.26398C308.261 7.72925 302.608 6.48825 296.322 5.46963C283.741 3.43056 268.088 2.19952 251.745 1.45501C224.559 0.216517 195.021 0.308729 173.795 0.374993Z" fill="black"/>
<path d="M333 9V34L313 9H333Z" fill="black" fill-opacity="0.6"/>
<path d="M328 107.5L249 113C288.5 107.5 322 101.723 328 86L328 107.5Z" fill="black" fill-opacity="0.4"/>
<path fill-rule="evenodd" clip-rule="evenodd" d="M330.205 230.625C334.508 230.612 338.469 230.599 342 230.599L342 220.599C338.423 220.599 334.426 220.612 330.096 220.625C308.858 220.691 279.625 220.781 252.71 219.555C236.503 218.817 221.296 217.607 209.277 215.659C203.262 214.684 198.179 213.545 194.227 212.24C190.131 210.888 187.838 209.542 186.817 208.501C184.07 205.7 181.764 200.465 180.1 192.969C178.474 185.642 177.612 176.888 177.204 167.795C176.65 155.465 176.936 143.179 177.166 133.253C177.231 130.428 177.293 127.794 177.329 125.405C185.752 124.973 202.306 123.869 218.017 122.785C228.156 122.086 238.055 121.386 245.419 120.861C249.101 120.599 252.149 120.381 254.278 120.228C255.342 120.151 256.176 120.091 256.744 120.05L257.611 119.987L257.614 119.987C257.614 119.987 257.614 119.987 257.253 115C256.892 110.013 256.892 110.013 256.891 110.013L256.024 110.076C255.457 110.117 254.624 110.177 253.56 110.253C251.434 110.406 248.388 110.625 244.708 110.887C237.349 111.411 227.457 112.11 217.328 112.809C196.906 114.218 175.955 115.594 172.36 115.594C171.029 115.594 169.752 116.125 168.814 117.069C167.875 118.013 167.352 119.292 167.36 120.623C167.377 123.61 167.285 127.633 167.179 132.323C166.948 142.425 166.647 155.624 167.214 168.243C167.634 177.595 168.532 187 170.338 195.136C172.107 203.104 174.906 210.638 179.677 215.502C182.415 218.295 186.587 220.249 191.091 221.736C195.739 223.271 201.392 224.512 207.678 225.53C220.259 227.569 235.912 228.8 252.255 229.545C279.441 230.783 308.979 230.691 330.205 230.625Z" fill="black"/>
<path d="M171 222L171 197L191 222L171 222Z" fill="black" fill-opacity="0.6"/>
<path d="M176 123.5L255 118C215.5 123.5 182 129.277 176 145L176 123.5Z" fill="black" fill-opacity="0.4"/>
</svg>

{% else %}
<svg x="{{6 + j * 322}}" y="{{i * 221}}" width="329" height="249" viewBox="0 0 329 249" fill="none">
<path fill-rule="evenodd" clip-rule="evenodd" d="M11.7905 13.659L21.7082 13.6401C22.215 20.7033 25.1318 29.4234 29.9448 39.2719C34.7218 49.0468 41.1866 59.5755 48.4339 70.1729C62.4185 90.6219 79.0522 110.95 91.4959 126.158C91.9549 126.719 92.4082 127.273 92.8555 127.819L85.1779 134.173C84.7096 133.6 84.2341 133.019 83.7519 132.43C71.3492 117.273 54.4762 96.6532 40.2425 75.8399C32.0333 63.8359 24.2154 51.3693 18.3887 37.9933C12.1831 77.3277 1.67299 150.779 24.0792 245.831L14.4052 248.137C-9.2667 147.716 3.18177 69.9022 9.21547 32.1864C10.5061 24.1189 11.5032 17.8861 11.7905 13.659Z" fill="black"/>
<path d="M3.61389 18.6997V94.697L15.0473 18.6997H3.61389Z" fill="black" fill-opacity="0.6"/>
<path d="M11.4681 52.9986L83.5486 131.996L15.9 34.9993L11.4681 52.9986Z" fill="black" fill-opacity="0.2"/>
<path d="M3.81274 238.992L3.81274 164.995L14.7491 238.992L3.81274 238.992Z" fill="black" fill-opacity="0.6"/>
<path fill-rule="evenodd" clip-rule="evenodd" d="M156.513 235.341L146.595 235.36C146.088 228.297 143.171 219.577 138.358 209.728C133.581 199.953 127.116 189.425 119.869 178.827C105.885 158.378 89.2509 138.05 76.8072 122.842C76.3482 122.281 75.8949 121.727 75.4476 121.181L83.1252 114.827C83.5935 115.4 84.069 115.981 84.5513 116.57C96.9539 131.727 113.827 152.347 128.061 173.16C136.27 185.164 144.088 197.631 149.914 211.007C156.12 171.672 166.63 98.2214 144.224 3.16943L153.898 0.862565C177.57 101.284 165.121 179.098 159.088 216.814C157.797 224.881 156.8 231.114 156.513 235.341Z" fill="black"/>
<path d="M164.689 230.3L164.689 154.303L153.256 230.3L164.689 230.3Z" fill="black" fill-opacity="0.6"/>
<path d="M156.835 196.001L84.7545 117.004L152.403 214.001L156.835 196.001Z" fill="black" fill-opacity="0.2"/>
<path d="M164.49 10.0081L164.49 84.0054L153.554 10.0081L164.49 10.0081Z" fill="black" fill-opacity="0.6"/>
<path fill-rule="evenodd" clip-rule="evenodd" d="M317.21 13.659L307.292 13.6401C306.785 20.7033 303.868 29.4234 299.055 39.2719C294.278 49.0468 287.814 59.5755 280.566 70.1729C266.582 90.6219 249.948 110.95 237.504 126.158C237.045 126.719 236.592 127.273 236.145 127.819L243.822 134.173C244.291 133.6 244.766 133.019 245.248 132.43C257.651 117.273 274.524 96.6532 288.758 75.8399C296.967 63.8359 304.785 51.3693 310.611 37.9933C316.817 77.3277 327.327 150.779 304.921 245.831L314.595 248.137C338.267 147.716 325.818 69.9022 319.785 32.1864C318.494 24.1189 317.497 17.8861 317.21 13.659Z" fill="black"/>
<path d="M325.386 18.6997V94.697L313.953 18.6997H325.386Z" fill="black" fill-opacity="0.6"/>
<path d="M317.532 52.9986L245.452 131.996L313.1 34.9993L317.532 52.9986Z" fill="black" fill-opacity="0.2"/>
<path d="M325.187 238.992L325.187 164.995L314.251 238.992L325.187 238.992Z" fill="black" fill-opacity="0.6"/>
<path fill-rule="evenodd" clip-rule="evenodd" d="M172.487 235.341L182.405 235.36C182.912 228.297 185.829 219.577 190.642 209.728C195.419 199.953 201.884 189.425 209.131 178.827C223.115 158.378 239.749 138.05 252.193 122.842C252.652 122.281 253.105 121.727 253.552 121.181L245.875 114.827C245.406 115.4 244.931 115.981 244.449 116.57C232.046 131.727 215.173 152.347 200.939 173.16C192.73 185.164 184.912 197.631 179.086 211.007C172.88 171.672 162.37 98.2214 184.776 3.16943L175.102 0.862565C151.43 101.284 163.879 179.098 169.912 216.814C171.203 224.881 172.2 231.114 172.487 235.341Z" fill="black"/>
<path d="M164.311 230.3L164.311 154.303L175.744 230.3L164.311 230.3Z" fill="black" fill-opacity="0.6"/>
<path d="M172.165 196.001L244.245 117.004L176.597 214.001L172.165 196.001Z" fill="black" fill-opacity="0.2"/>
<path d="M164.51 10.0081L164.51 84.0054L175.446 10.0081L164.51 10.0081Z" fill="black" fill-opacity="0.6"/>
</svg>


{% endif %}
{% endfor %}
{% endfor %}
</svg>
