<!-- P -->
<svg width="100" height="100" viewBox="0 0 100 100" fill="none" xmlns="http://www.w3.org/2000/svg">
<rect x="3.5" y="3.5" width="93" height="93" rx="16.5" fill="#F6F6F6" stroke="#4EC1D0" stroke-width="7"/>
<path d="M40.5 56.6094V78.875H33V22H53.9766C60.2005 22 65.0703 23.5885 68.5859 26.7656C72.1276 29.9427 73.8984 34.1484 73.8984 39.3828C73.8984 44.9036 72.1667 49.1615 68.7031 52.1562C65.2656 55.125 60.3307 56.6094 53.8984 56.6094H40.5ZM40.5 50.4766H53.9766C57.987 50.4766 61.0599 49.5391 63.1953 47.6641C65.3307 45.763 66.3984 43.0286 66.3984 39.4609C66.3984 36.0755 65.3307 33.3672 63.1953 31.3359C61.0599 29.3047 58.1302 28.25 54.4062 28.1719H40.5V50.4766Z" fill="#4EC1D0"/>
</svg>
<!-- K -->
<svg width="100" height="100" viewBox="0 0 100 100" fill="none" xmlns="http://www.w3.org/2000/svg">
<rect x="3.5" y="3.5" width="93" height="93" rx="13.5" fill="#F6F6F6" stroke="#4EC1D0" stroke-width="7"/>
<path d="M45.4531 52.4297L38.5 59.6562V78.875H31V22H38.5V50.125L63.7734 22H72.8359L50.4531 47.1172L74.5938 78.875H65.6094L45.4531 52.4297Z" fill="#4EC1D0"/>
</svg>
